<svg width="500" height="500" viewBox="0 0 500 500" fill="none" xmlns="http://www.w3.org/2000/svg">
<path d="M420.529 296.396L442.815 304.037L444.282 301.115C444.788 301.119 445.242 301.274 445.644 301.582L443.754 306.726L438.513 322.013L429.722 319.041C429.811 318.452 429.971 317.985 430.202 317.641L437.66 318.211L441.162 307.995L430 304.168L428.038 310.261L431.448 312.402C431.419 312.815 431.259 313.282 430.968 313.802C429.59 313.217 427.98 312.609 426.139 311.978C424.449 311.398 422.796 310.874 421.181 310.405C421.185 309.899 421.341 309.445 421.648 309.043L425.868 309.559L428.07 303.506L414.638 298.901L413.079 302.215C412.666 302.186 412.199 302.026 411.679 301.735C412.299 300.171 412.951 298.393 413.635 296.401C414.145 294.912 414.738 293.1 415.414 290.964C415.92 290.968 416.374 291.124 416.776 291.431L416.153 294.727C417.077 295.157 418.536 295.713 420.529 296.396Z" fill="white"/>
<path d="M409.667 325.667L430.049 337.565L432.062 334.988C432.557 335.092 432.972 335.334 433.306 335.714L430.439 340.386L422.292 354.343L414.258 349.699C414.461 349.138 414.71 348.712 415.004 348.42L422.204 350.447L427.649 341.12L417.286 335.07L414.163 340.658L417.084 343.429C416.975 343.828 416.726 344.254 416.338 344.707C415.102 343.862 413.644 342.949 411.963 341.967C410.42 341.066 408.902 340.227 407.411 339.449C407.515 338.954 407.757 338.539 408.137 338.206L412.174 339.543L415.524 334.042L403.675 327.125L397.625 337.488L402.93 342.762C402.821 343.161 402.572 343.587 402.184 344.04L394.19 339.327L402.942 324.335L405.722 319.334C406.217 319.438 406.631 319.68 406.965 320.06L405.672 323.149C406.792 323.927 408.124 324.766 409.667 325.667Z" fill="white"/>
<path d="M385.261 352.089L389.017 347.773C389.48 347.977 389.835 348.3 390.083 348.741L388.178 351.495C389.113 352.488 390.242 353.585 391.565 354.786L409.04 370.647L411.514 368.517C411.882 368.706 412.247 369.038 412.61 369.511C411.545 370.526 410.278 371.842 408.808 373.462C407.5 374.903 406.293 376.292 405.187 377.63C404.724 377.425 404.369 377.103 404.121 376.662L405.997 373.881C405.318 373.121 404.199 372.033 402.639 370.617L385.401 354.971L376.529 364.745L380.627 371.003C380.437 371.371 380.105 371.736 379.632 372.099L372.787 365.832L385.261 352.089Z" fill="white"/>
<path d="M375.758 396.814L361.211 378.281L358.415 379.967C358.084 379.719 357.78 379.331 357.501 378.803C358.872 377.829 360.334 376.732 361.886 375.514C363.019 374.625 364.45 373.468 366.179 372.043C366.601 372.322 366.898 372.699 367.068 373.176L364.753 375.603C365.295 376.466 366.216 377.726 367.517 379.383L382.064 397.916L384.859 396.23C385.19 396.479 385.495 396.867 385.773 397.394C384.553 398.216 383.084 399.302 381.363 400.652C379.832 401.854 378.41 403.021 377.095 404.155C376.673 403.876 376.377 403.498 376.206 403.022L378.522 400.594C377.98 399.731 377.059 398.471 375.758 396.814Z" fill="white"/>
<path d="M330.514 402.567C329.975 402.522 329.431 402.238 328.88 401.717C330.514 396.912 333.013 393.61 336.375 391.812C338.68 390.58 340.911 389.917 343.067 389.822C345.237 389.751 347.25 390.095 349.108 390.856C350.979 391.64 352.662 392.751 354.157 394.189C355.641 395.664 356.873 397.318 357.854 399.152C358.847 401.01 359.498 402.991 359.806 405.094C360.126 407.221 360.046 409.305 359.565 411.346C359.097 413.411 358.195 415.344 356.86 417.146C355.502 418.961 353.671 420.485 351.366 421.717C348.333 423.339 345.134 424.142 341.769 424.127L338.148 417.354C338.533 417.057 338.891 416.821 339.22 416.645C339.573 416.456 339.885 416.334 340.158 416.279L344.437 421.566C346.374 421.74 348.542 421.186 350.941 419.903C352.422 419.111 353.581 418.053 354.415 416.73C355.239 415.443 355.766 413.997 355.997 412.392C356.216 410.823 356.134 409.143 355.751 407.352C355.381 405.585 354.731 403.831 353.8 402.091C352.807 400.233 351.677 398.629 350.412 397.28C349.122 395.943 347.77 394.913 346.354 394.188C344.939 393.463 343.49 393.073 342.01 393.018C340.518 392.999 339.066 393.367 337.655 394.122C335.962 395.027 334.504 396.23 333.28 397.731C332.057 399.232 331.134 400.844 330.514 402.567Z" fill="white"/>
<path d="M318.814 427.891L311.505 405.493L308.301 406.118C308.075 405.771 307.922 405.302 307.842 404.711C309.464 404.266 311.213 403.737 313.089 403.125C314.458 402.679 316.199 402.082 318.312 401.337C318.613 401.744 318.761 402.2 318.758 402.706L315.751 404.192C315.964 405.189 316.397 406.688 317.051 408.691L324.359 431.089L327.564 430.464C327.789 430.811 327.942 431.28 328.023 431.871C326.595 432.224 324.842 432.74 322.763 433.419C320.913 434.022 319.176 434.631 317.553 435.245C317.252 434.838 317.103 434.382 317.106 433.876L320.114 432.39C319.901 431.393 319.467 429.894 318.814 427.891Z" fill="white"/>
<path d="M304.356 439.605L276.989 443.48L275.648 434.297C276.214 434.109 276.702 434.04 277.113 434.09L279.99 440.995L288.228 439.828L284.296 412.065L280.24 412.236C280.079 411.854 280.009 411.366 280.033 410.77C281.707 410.614 283.72 410.369 286.07 410.037C287.891 409.779 289.908 409.466 292.118 409.099C292.344 409.552 292.411 410.028 292.32 410.525L288.704 411.522C288.74 412.54 288.906 414.092 289.202 416.178L292.465 439.228L300.782 438.051L301.629 430.619C302.01 430.457 302.498 430.388 303.094 430.411L304.356 439.605Z" fill="white"/>
<path d="M261.66 414.432L258.462 413.775C258.388 413.368 258.427 412.876 258.58 412.3C260.248 412.514 261.654 412.666 262.797 412.758C263.435 412.809 264.873 412.897 267.11 413.022C267.231 413.513 267.193 413.992 266.995 414.458L264.325 414.726C263.849 415.33 263.222 416.47 262.446 418.147L249.959 444.836L248.563 444.725L239.491 412.659L236.293 412.002C236.218 411.595 236.258 411.103 236.411 410.527C238.079 410.741 239.95 410.93 242.023 411.096C243.565 411.22 245.455 411.344 247.692 411.469C247.813 411.961 247.775 412.439 247.577 412.905L244.229 413.119L246.95 423.248L257.317 424.077L261.66 414.432ZM250.799 438.844L250.839 438.847C251.258 437.624 251.907 436.03 252.786 434.067L256.44 426.013L247.509 425.299L249.756 433.825C250.185 435.491 250.532 437.164 250.799 438.844Z" fill="white"/>
<path d="M183.514 399.883L173.851 420.754L197.72 397.953L198.664 398.39L196.739 430.25L205.983 410.286C206.868 408.374 207.475 406.936 207.804 405.972L204.63 403.973C204.686 403.47 204.888 403.035 205.235 402.666C207.294 403.678 208.759 404.386 209.63 404.789C211.082 405.462 212.562 406.103 214.072 406.714C213.922 407.291 213.715 407.739 213.45 408.057L209.979 406.891L200.08 428.27C199.195 430.182 198.588 431.62 198.259 432.584L201.07 434.415C201.025 434.893 200.834 435.305 200.499 435.649L192.513 431.952L194.461 403.849L174.074 423.414C173.528 423.132 172.687 422.728 171.55 422.201C171.308 422.089 169.391 421.246 165.8 419.672C165.857 419.169 166.059 418.733 166.406 418.365L169.62 419.324C170.142 418.449 170.846 417.056 171.731 415.145L181.63 393.765L178.858 392.041C178.93 391.633 179.137 391.185 179.48 390.698C180.971 391.476 182.612 392.28 184.403 393.109C185.709 393.714 187.39 394.463 189.445 395.356C189.31 396.028 189.109 396.463 188.84 396.662L185.626 395.703C185.103 396.578 184.399 397.971 183.514 399.883Z" fill="white"/>
<path d="M165.727 389.371L150.858 407.698L153.097 410.081C152.919 410.554 152.617 410.927 152.19 411.199L148.01 407.653L135.461 397.471L141.276 390.24C141.799 390.527 142.182 390.837 142.426 391.172L139.324 397.979L147.711 404.783L155.272 395.465L150.226 391.526L147.042 393.99C146.664 393.821 146.281 393.51 145.892 393.058C146.916 391.965 148.041 390.663 149.268 389.151C150.393 387.764 151.454 386.393 152.451 385.038C152.924 385.216 153.297 385.518 153.569 385.945L151.631 389.73L156.557 393.881L165.201 383.226L155.882 375.666L149.861 380.103C149.483 379.934 149.1 379.623 148.712 379.171L154.59 371.99L168.071 382.927L172.588 386.438C172.41 386.912 172.107 387.284 171.681 387.556L168.825 385.806C167.886 386.795 166.853 387.983 165.727 389.371Z" fill="white"/>
<path d="M122.131 385.757C121.276 384.699 120.002 383.209 118.309 381.285C116.616 379.362 115.51 378.079 114.99 377.436L114.311 376.596C112.114 373.88 111.039 371.406 111.086 369.173C111.111 366.957 112.026 365.12 113.83 363.661C116.401 361.582 119.543 361.819 123.254 364.373L123.348 364.298C122.062 362.114 121.588 359.959 121.927 357.833C122.228 355.704 123.239 353.943 124.96 352.551C127.261 350.69 129.692 350.027 132.252 350.563C134.795 351.079 137.291 352.85 139.739 355.877C140.41 356.707 141.427 358.113 142.791 360.097C144.159 362.043 145.288 363.565 146.176 364.664C146.277 364.788 146.436 364.985 146.654 365.255C146.893 365.508 147.063 365.696 147.163 365.821C146.891 366.247 146.517 366.549 146.044 366.726L143.614 364.421C142.759 364.976 141.512 365.915 139.874 367.24L121.555 382.055L123.282 384.826C123.038 385.16 122.654 385.471 122.131 385.757ZM127.613 367.536L129.625 370.024L140.884 360.919C140.215 359.71 139.65 358.778 139.189 358.123C137.16 355.614 135.293 354.26 133.589 354.061C131.863 353.878 129.995 354.6 127.984 356.227C126.367 357.535 125.486 359.224 125.343 361.295C125.163 363.361 125.919 365.442 127.613 367.536ZM116.271 376.348C117.11 377.385 117.878 378.187 118.577 378.754C119.432 378.199 120.761 377.193 122.565 375.734L128.07 371.282L126.108 368.856C124.549 366.928 123.023 365.847 121.531 365.613C120.022 365.359 118.49 365.86 116.935 367.118C115.359 368.392 114.54 369.861 114.478 371.523C114.399 373.164 114.997 374.773 116.271 376.348Z" fill="white"/>
<path d="M118.684 339.38L97.6733 350.127L98.7569 353.212C98.4025 353.573 97.9751 353.791 97.4749 353.867L95.0863 348.934L87.7275 334.547L95.9713 330.285C96.3334 330.759 96.558 331.198 96.6452 331.603L91.0555 336.573L95.9736 346.189L106.657 340.724L103.636 335.081L99.727 336.047C99.4499 335.739 99.2253 335.3 99.0531 334.729C100.431 334.144 101.987 333.408 103.72 332.522C105.311 331.708 106.836 330.883 108.295 330.047C108.656 330.402 108.874 330.829 108.951 331.329L105.648 334.007L108.473 339.795L120.688 333.548L115.224 322.864L107.922 324.487C107.645 324.18 107.42 323.74 107.248 323.169L115.528 318.979L123.433 334.435L126.145 339.473C125.791 339.834 125.363 340.052 124.863 340.128L122.959 337.373C121.7 337.897 120.275 338.566 118.684 339.38Z" fill="white"/>
<path d="M109.687 304.817L111.314 310.302C110.894 310.584 110.431 310.71 109.926 310.683L108.624 307.597C107.284 307.854 105.753 308.218 104.029 308.69L81.2682 314.926L81.7386 318.157C81.381 318.365 80.9052 318.496 80.3112 318.548C80.0265 317.105 79.5953 315.329 79.0175 313.22C78.5031 311.343 77.9783 309.579 77.4431 307.928C77.8638 307.647 78.3267 307.52 78.8319 307.548L80.1721 310.623C81.1776 310.458 82.6963 310.097 84.7281 309.541L107.181 303.389L103.693 290.658L96.2132 290.758C96.0046 290.4 95.8742 289.925 95.8221 289.331L104.783 286.917L109.687 304.817Z" fill="white"/>
<path d="M97.9528 204.215L75.5869 196.81L74.1508 199.747C73.6449 199.748 73.1892 199.597 72.7838 199.295L74.6202 194.13L79.6996 178.789L88.5218 181.668C88.4387 182.258 88.2836 182.727 88.0566 183.073L80.5926 182.582L77.198 192.835L88.4 196.544L90.2977 190.43L86.8655 188.325C86.89 187.912 87.0451 187.443 87.3307 186.92C88.7148 187.49 90.3309 188.082 92.1789 188.694C93.875 189.255 95.5331 189.762 97.1531 190.214C97.1541 190.72 97.0032 191.176 96.7005 191.581L92.4747 191.109L90.3366 197.185L103.817 201.648L105.341 198.318C105.754 198.343 106.222 198.498 106.746 198.784C106.142 200.353 105.509 202.138 104.846 204.138C104.352 205.632 103.778 207.45 103.125 209.593C102.619 209.594 102.163 209.443 101.757 209.141L102.345 205.838C101.417 205.418 99.9527 204.877 97.9528 204.215Z" fill="white"/>
<path d="M108.505 174.832L87.9996 163.149L86.0135 165.747C85.5172 165.648 85.1001 165.41 84.7623 165.034L87.5792 160.332L95.5787 146.29L103.662 150.849C103.464 151.412 103.22 151.841 102.929 152.135L95.7077 150.185L90.3616 159.569L100.788 165.509L103.852 159.889L100.901 157.149C101.007 156.749 101.251 156.32 101.634 155.863C102.879 156.695 104.347 157.593 106.038 158.556C107.591 159.441 109.117 160.264 110.616 161.026C110.517 161.522 110.28 161.94 109.903 162.277L105.853 160.983L102.561 166.519L114.482 173.311L120.422 162.884L115.062 157.667C115.167 157.266 115.411 156.838 115.795 156.381L123.838 161.009L115.244 176.093L112.517 181.122C112.021 181.024 111.604 180.786 111.266 180.41L112.527 177.307C111.398 176.541 110.058 175.716 108.505 174.832Z" fill="white"/>
<path d="M132.631 148.153L128.922 152.509C128.457 152.31 128.098 151.991 127.845 151.552L129.722 148.778C128.776 147.795 127.635 146.71 126.3 145.524L108.658 129.847L106.207 132.004C105.837 131.818 105.468 131.49 105.101 131.021C106.155 129.995 107.408 128.665 108.86 127.03C110.153 125.575 111.346 124.173 112.437 122.824C112.902 123.024 113.261 123.343 113.514 123.781L111.667 126.582C112.354 127.334 113.485 128.411 115.059 129.81L132.462 145.273L141.23 135.406L137.066 129.192C137.252 128.822 137.58 128.453 138.049 128.086L144.96 134.28L132.631 148.153Z" fill="white"/>
<path d="M141.663 103.331L156.405 121.709L159.182 119.994C159.516 120.239 159.824 120.624 160.108 121.149C158.748 122.137 157.298 123.249 155.758 124.484C154.635 125.385 153.216 126.557 151.502 128C151.077 127.726 150.777 127.351 150.601 126.877L152.891 124.425C152.34 123.568 151.406 122.318 150.088 120.674L135.346 102.296L132.569 104.011C132.235 103.766 131.926 103.381 131.643 102.856C132.853 102.022 134.312 100.921 136.017 99.5524C137.536 98.3344 138.946 97.1519 140.248 96.005C140.673 96.2793 140.974 96.6538 141.149 97.1283L138.86 99.58C139.411 100.437 140.345 101.688 141.663 103.331Z" fill="white"/>
<path d="M186.844 97.1021C187.383 97.1414 187.93 97.419 188.487 97.9349C186.903 102.757 184.44 106.084 181.096 107.918C178.805 109.174 176.581 109.861 174.425 109.978C172.257 110.073 170.24 109.749 168.374 109.008C166.495 108.244 164.801 107.151 163.291 105.728C161.791 104.269 160.542 102.628 159.542 100.804C158.529 98.9569 157.857 96.9833 157.527 94.8835C157.184 92.7603 157.243 90.6755 157.702 88.6293C158.149 86.5597 159.03 84.6168 160.345 82.8007C161.684 80.9717 163.499 79.429 165.791 78.1726C168.807 76.5188 171.998 75.6818 175.363 75.6617L179.055 82.3959C178.672 82.6969 178.318 82.9371 177.99 83.1165C177.639 83.3088 177.328 83.434 177.056 83.4921L172.722 78.2501C170.783 78.0968 168.621 78.6741 166.235 79.9817C164.762 80.7894 163.615 81.8592 162.795 83.1912C161.985 84.4869 161.473 85.9384 161.259 87.5457C161.056 89.1168 161.156 90.7957 161.557 92.5826C161.946 94.346 162.615 96.0929 163.564 97.8233C164.577 99.6705 165.723 101.262 167.003 102.598C168.306 103.921 169.67 104.937 171.093 105.647C172.516 106.357 173.968 106.732 175.45 106.771C176.941 106.774 178.389 106.391 179.792 105.622C181.475 104.699 182.921 103.48 184.129 101.967C185.336 100.453 186.242 98.8315 186.844 97.1021Z" fill="white"/>
<path d="M198.277 71.6558L205.821 93.9752L209.018 93.3167C209.247 93.6615 209.405 94.1288 209.492 94.7187C207.875 95.1809 206.132 95.7279 204.262 96.3598C202.898 96.8209 201.164 97.4354 199.059 98.2032C198.753 97.7997 198.6 97.345 198.597 96.839L201.589 95.3212C201.366 94.3271 200.917 92.8321 200.242 90.8364L192.698 68.5169L189.5 69.1755C189.271 68.8307 189.113 68.3634 189.026 67.7734C190.45 67.4048 192.197 66.8704 194.269 66.1702C196.113 65.5469 197.843 64.9198 199.46 64.289C199.765 64.6924 199.919 65.1472 199.921 65.6531L196.93 67.171C197.153 68.1651 197.602 69.66 198.277 71.6558Z" fill="white"/>
<path d="M212.611 59.7902L239.935 55.6271L241.373 64.7952C240.809 64.989 240.321 65.0633 239.91 65.0181L236.96 58.1439L228.735 59.397L232.959 87.1171L237.013 86.9041C237.179 87.2835 237.253 87.7712 237.236 88.3672C235.563 88.5411 233.553 88.8069 231.207 89.1643C229.388 89.4415 227.375 89.7751 225.169 90.1652C224.938 89.7148 224.866 89.2402 224.952 88.7416L228.557 87.7068C228.51 86.689 228.328 85.1387 228.011 83.0561L224.504 60.0417L216.2 61.3069L215.432 68.7474C215.053 68.9131 214.565 68.9874 213.969 68.9703L212.611 59.7902Z" fill="white"/>
<path d="M255.569 84.5118L258.774 85.135C258.852 85.5415 258.818 86.0336 258.671 86.6115C257.001 86.4154 255.594 86.2777 254.45 86.1983C253.811 86.154 252.373 86.081 250.135 85.9791C250.008 85.4892 250.041 85.0104 250.234 84.5426L252.901 84.2465C253.371 83.6375 253.985 82.4906 254.744 80.8057L266.949 53.9862L268.346 54.0831L277.756 86.051L280.96 86.6743C281.039 87.0807 281.005 87.5728 280.858 88.1507C279.187 87.9546 277.315 87.7846 275.24 87.6407C273.697 87.5336 271.806 87.4292 269.568 87.3274C269.441 86.8374 269.475 86.3586 269.668 85.8908L273.013 85.6417L270.185 75.5418L259.81 74.822L255.569 84.5118ZM266.172 59.9868L266.132 59.984C265.726 61.2122 265.094 62.8123 264.235 64.7842L260.667 72.8766L269.605 73.4968L267.268 64.9946C266.822 63.3331 266.457 61.6638 266.172 59.9868Z" fill="white"/>
<path d="M333.864 98.2372L343.307 77.2652L319.679 100.317L318.731 99.8898L320.319 68.0112L311.287 88.0714C310.422 89.9923 309.83 91.4366 309.511 92.4044L312.706 94.3694C312.655 94.8728 312.458 95.3105 312.115 95.6825C310.046 94.6923 308.573 94.0001 307.698 93.6059C306.239 92.949 304.752 92.3231 303.236 91.7282C303.379 91.1494 303.582 90.6996 303.843 90.3787L307.326 91.5084L317 70.0258C317.865 68.1048 318.456 66.6605 318.775 65.6927L315.945 63.8919C315.985 63.4129 316.171 62.9995 316.503 62.6518L324.527 66.2649L322.876 94.3864L343.056 74.6078C343.604 74.8839 344.45 75.2793 345.592 75.7938C345.836 75.9033 347.761 76.7263 351.368 78.2628C351.317 78.7662 351.12 79.2039 350.777 79.5759L347.552 78.6504C347.039 79.5306 346.35 80.9312 345.485 82.8521L335.812 104.335L338.602 106.03C338.535 106.438 338.333 106.888 337.994 107.379C336.495 106.617 334.846 105.83 333.047 105.02C331.734 104.429 330.045 103.698 327.981 102.826C328.109 102.153 328.306 101.715 328.572 101.513L331.796 102.439C332.31 101.559 332.999 100.158 333.864 98.2372Z" fill="white"/>
<path d="M351.76 108.561L366.436 90.0788L364.172 87.7195C364.345 87.2441 364.643 86.8682 365.067 86.5918L369.284 90.0934L381.94 100.142L376.201 107.435C375.675 107.153 375.289 106.847 375.042 106.514L378.071 99.6753L369.613 92.9595L362.151 102.357L367.238 106.243L370.396 103.745C370.776 103.91 371.162 104.217 371.555 104.666C370.543 105.769 369.432 107.083 368.221 108.607C367.11 110.006 366.064 111.389 365.082 112.754C364.606 112.581 364.231 112.282 363.954 111.859L365.852 108.054L360.883 103.955L352.351 114.7L361.749 122.162L367.724 117.661C368.103 117.826 368.49 118.133 368.883 118.581L363.081 125.824L349.485 115.029L344.931 111.566C345.104 111.091 345.403 110.715 345.826 110.438L348.7 112.158C349.629 111.159 350.649 109.96 351.76 108.561Z" fill="white"/>
<path d="M395.392 111.716C396.259 112.764 397.548 114.241 399.261 116.147C400.974 118.052 402.094 119.324 402.62 119.961L403.308 120.793C405.534 123.486 406.635 125.949 406.612 128.182C406.609 130.398 405.714 132.245 403.926 133.723C401.377 135.829 398.233 135.625 394.494 133.11L394.402 133.186C395.711 135.356 396.207 137.506 395.891 139.635C395.612 141.768 394.62 143.54 392.914 144.949C390.632 146.835 388.208 147.523 385.643 147.014C383.094 146.525 380.58 144.78 378.1 141.779C377.421 140.957 376.389 139.561 375.004 137.592C373.615 135.661 372.471 134.15 371.571 133.061C371.469 132.937 371.307 132.742 371.086 132.475C370.845 132.225 370.673 132.038 370.572 131.914C370.84 131.485 371.21 131.18 371.682 130.997L374.136 133.276C374.985 132.713 376.221 131.76 377.845 130.418L396.007 115.411L394.252 112.659C394.492 112.322 394.872 112.007 395.392 111.716ZM390.103 129.993L388.064 127.526L376.902 136.75C377.583 137.951 378.158 138.877 378.627 139.528C380.682 142.015 382.563 143.349 384.269 143.531C385.996 143.695 387.857 142.953 389.851 141.305C391.454 139.981 392.317 138.282 392.438 136.21C392.597 134.142 391.818 132.069 390.103 129.993ZM401.351 121.062C400.502 120.034 399.725 119.24 399.02 118.681C398.171 119.244 396.852 120.265 395.064 121.742L389.606 126.252L391.594 128.657C393.173 130.569 394.71 131.634 396.205 131.852C397.717 132.09 399.243 131.573 400.785 130.299C402.347 129.008 403.151 127.531 403.195 125.868C403.257 124.226 402.642 122.624 401.351 121.062Z" fill="white"/>
<path d="M399.327 158.054L420.224 147.086L419.108 144.013C419.459 143.648 419.884 143.425 420.383 143.343L422.824 148.252L430.334 162.56L422.135 166.909C421.768 166.439 421.539 166.002 421.447 165.598L426.984 160.569L421.965 151.006L411.34 156.583L414.42 162.194L418.319 161.187C418.599 161.491 418.828 161.928 419.007 162.497C417.635 163.097 416.087 163.849 414.363 164.753C412.781 165.584 411.265 166.425 409.815 167.276C409.45 166.926 409.227 166.501 409.146 166.001L412.42 163.289L409.534 157.531L397.385 163.907L402.962 174.532L410.246 172.832C410.527 173.137 410.756 173.574 410.934 174.143L402.698 178.42L394.631 163.048L391.866 158.039C392.217 157.675 392.642 157.452 393.141 157.37L395.074 160.105C396.328 159.568 397.745 158.884 399.327 158.054Z" fill="white"/>
<path d="M408.688 192.519L407.003 187.052C407.421 186.766 407.883 186.635 408.388 186.657L409.722 189.729C411.059 189.458 412.587 189.078 414.305 188.587L436.999 182.112L436.495 178.886C436.85 178.674 437.325 178.539 437.918 178.48C438.218 179.92 438.668 181.691 439.268 183.794C439.802 185.666 440.345 187.424 440.898 189.069C440.48 189.355 440.019 189.486 439.513 189.464L438.141 186.403C437.137 186.579 435.622 186.956 433.596 187.534L411.21 193.921L414.832 206.615L422.31 206.436C422.522 206.791 422.657 207.266 422.716 207.859L413.781 210.367L408.688 192.519Z" fill="white"/>
<path d="M154.024 204.2H228.904L230.344 234.152H227.752C224.2 223.784 220.072 216.728 215.368 212.984C210.76 209.24 203.848 207.368 194.632 207.368H190.6V254.168H197.08C201.688 254.168 205.528 252.488 208.6 249.128C211.672 245.768 213.784 241.16 214.936 235.304H217.096V277.928H214.648C213.112 270.728 210.952 265.592 208.168 262.52C205.48 259.448 201.784 257.912 197.08 257.912H190.6V301.832H208.456V305H154.024V301.832H162.52V207.368H154.024V204.2ZM322.331 204.2H360.779V206.936H352.859V302.264H360.779V305H316.859V302.264H324.779V212.264H324.203L302.603 305H284.603L259.259 211.832H258.683V302.264H266.603V305H247.019V302.264H254.939V206.936H247.019V204.2H285.899L305.051 278.36L322.331 204.2Z" fill="white"/>
<path d="M75.7 271C74.5 271 73.3833 270.683 72.35 270.05C71.35 269.45 70.5333 268.633 69.9 267.6C69.3 266.567 69 265.433 69 264.2C69 262.4 69.6667 260.867 71 259.6C72.3667 258.333 74.0667 257.6 76.1 257.4L75.6 255.8C74.9333 256.167 74.1667 256.483 73.3 256.75C72.4667 257.017 71.6667 257.15 70.9 257.15C69.7 257.15 68.6167 256.85 67.65 256.25C66.7167 255.617 65.9667 254.8 65.4 253.8C64.8333 252.767 64.55 251.667 64.55 250.5C64.55 249.233 64.85 248.1 65.45 247.1C66.0833 246.067 66.9 245.25 67.9 244.65C68.9 244.05 70 243.75 71.2 243.75C72.5667 243.75 73.8833 244.233 75.15 245.2C76.4167 246.167 77.3333 247.333 77.9 248.7L79.2 247.7C78.3 246.867 77.5667 245.95 77 244.95C76.4667 243.917 76.2 242.933 76.2 242C76.2 240.733 76.5 239.6 77.1 238.6C77.7 237.567 78.5 236.75 79.5 236.15C80.5333 235.517 81.6667 235.2 82.9 235.2C84.1333 235.2 85.2667 235.517 86.3 236.15C87.3333 236.75 88.15 237.567 88.75 238.6C89.3833 239.633 89.7 240.767 89.7 242C89.7 242.933 89.4167 243.933 88.85 245C88.2833 246.033 87.5667 246.933 86.7 247.7L88 248.7C88.5667 247.3 89.4667 246.133 90.7 245.2C91.9667 244.233 93.3 243.75 94.7 243.75C95.9 243.75 97 244.05 98 244.65C99.0333 245.25 99.85 246.067 100.45 247.1C101.05 248.1 101.35 249.233 101.35 250.5C101.35 251.667 101.05 252.767 100.45 253.8C99.8833 254.8 99.1167 255.617 98.15 256.25C97.2167 256.85 96.1833 257.15 95.05 257.15C93.55 257.15 91.9667 256.7 90.3 255.8L89.8 257.4C91.1333 257.533 92.3333 257.917 93.4 258.55C94.4667 259.15 95.3167 259.95 95.95 260.95C96.5833 261.917 96.9 263 96.9 264.2C96.9 265.4 96.5833 266.517 95.95 267.55C95.35 268.583 94.55 269.417 93.55 270.05C92.55 270.683 91.4333 271 90.2 271C88.3 271 86.7167 270.35 85.45 269.05C84.1833 267.717 83.55 266.017 83.55 263.95C83.55 263.183 83.6333 262.467 83.8 261.8H82.1C82.1667 262.133 82.2167 262.483 82.25 262.85C82.3167 263.217 82.35 263.583 82.35 263.95C82.35 265.983 81.7167 267.667 80.45 269C79.1833 270.333 77.6 271 75.7 271ZM82.9 260.5C84.0333 260.5 85.0667 260.217 86 259.65C86.9333 259.083 87.6833 258.333 88.25 257.4C88.8167 256.467 89.1 255.433 89.1 254.3C89.1 253.167 88.8167 252.133 88.25 251.2C87.6833 250.267 86.9333 249.517 86 248.95C85.0667 248.383 84.0333 248.1 82.9 248.1C81.7667 248.1 80.7333 248.383 79.8 248.95C78.9 249.517 78.1667 250.267 77.6 251.2C77.0667 252.133 76.8 253.167 76.8 254.3C76.8 255.433 77.0667 256.483 77.6 257.45C78.1667 258.383 78.9167 259.133 79.85 259.7C80.7833 260.233 81.8 260.5 82.9 260.5Z" fill="white"/>
<path d="M427.7 271C426.5 271 425.383 270.683 424.35 270.05C423.35 269.45 422.533 268.633 421.9 267.6C421.3 266.567 421 265.433 421 264.2C421 262.4 421.667 260.867 423 259.6C424.367 258.333 426.067 257.6 428.1 257.4L427.6 255.8C426.933 256.167 426.167 256.483 425.3 256.75C424.467 257.017 423.667 257.15 422.9 257.15C421.7 257.15 420.617 256.85 419.65 256.25C418.717 255.617 417.967 254.8 417.4 253.8C416.833 252.767 416.55 251.667 416.55 250.5C416.55 249.233 416.85 248.1 417.45 247.1C418.083 246.067 418.9 245.25 419.9 244.65C420.9 244.05 422 243.75 423.2 243.75C424.567 243.75 425.883 244.233 427.15 245.2C428.417 246.167 429.333 247.333 429.9 248.7L431.2 247.7C430.3 246.867 429.567 245.95 429 244.95C428.467 243.917 428.2 242.933 428.2 242C428.2 240.733 428.5 239.6 429.1 238.6C429.7 237.567 430.5 236.75 431.5 236.15C432.533 235.517 433.667 235.2 434.9 235.2C436.133 235.2 437.267 235.517 438.3 236.15C439.333 236.75 440.15 237.567 440.75 238.6C441.383 239.633 441.7 240.767 441.7 242C441.7 242.933 441.417 243.933 440.85 245C440.283 246.033 439.567 246.933 438.7 247.7L440 248.7C440.567 247.3 441.467 246.133 442.7 245.2C443.967 244.233 445.3 243.75 446.7 243.75C447.9 243.75 449 244.05 450 244.65C451.033 245.25 451.85 246.067 452.45 247.1C453.05 248.1 453.35 249.233 453.35 250.5C453.35 251.667 453.05 252.767 452.45 253.8C451.883 254.8 451.117 255.617 450.15 256.25C449.217 256.85 448.183 257.15 447.05 257.15C445.55 257.15 443.967 256.7 442.3 255.8L441.8 257.4C443.133 257.533 444.333 257.917 445.4 258.55C446.467 259.15 447.317 259.95 447.95 260.95C448.583 261.917 448.9 263 448.9 264.2C448.9 265.4 448.583 266.517 447.95 267.55C447.35 268.583 446.55 269.417 445.55 270.05C444.55 270.683 443.433 271 442.2 271C440.3 271 438.717 270.35 437.45 269.05C436.183 267.717 435.55 266.017 435.55 263.95C435.55 263.183 435.633 262.467 435.8 261.8H434.1C434.167 262.133 434.217 262.483 434.25 262.85C434.317 263.217 434.35 263.583 434.35 263.95C434.35 265.983 433.717 267.667 432.45 269C431.183 270.333 429.6 271 427.7 271ZM434.9 260.5C436.033 260.5 437.067 260.217 438 259.65C438.933 259.083 439.683 258.333 440.25 257.4C440.817 256.467 441.1 255.433 441.1 254.3C441.1 253.167 440.817 252.133 440.25 251.2C439.683 250.267 438.933 249.517 438 248.95C437.067 248.383 436.033 248.1 434.9 248.1C433.767 248.1 432.733 248.383 431.8 248.95C430.9 249.517 430.167 250.267 429.6 251.2C429.067 252.133 428.8 253.167 428.8 254.3C428.8 255.433 429.067 256.483 429.6 257.45C430.167 258.383 430.917 259.133 431.85 259.7C432.783 260.233 433.8 260.5 434.9 260.5Z" fill="white"/>
</svg>
