<svg width="932" height="512" viewBox="0 0 932 512" fill="none" xmlns="http://www.w3.org/2000/svg">
<path d="M129.833 484H68.3056L56 451H142.139L129.833 484ZM499 451H412.861L425.167 484H486.694L499 451Z" fill="#695538"/>
<path d="M512 461.913H0V417.391H512V461.913Z" fill="#CBB57A"/>
<path d="M512 473.043H0V450.783H512V473.043Z" fill="#9E8E60"/>
<path d="M222.609 116.87V428.522C222.609 434.669 217.626 439.652 211.478 439.652H155.826C149.679 439.652 144.696 434.669 144.696 428.522C144.696 434.669 139.713 439.652 133.565 439.652H77.9131C71.7658 439.652 66.7827 434.669 66.7827 428.522V38.9565C66.7827 32.8092 71.7658 27.8261 77.9131 27.8261H133.565C139.713 27.8261 144.696 32.8092 144.696 38.9565V116.87C144.696 110.722 149.679 105.739 155.826 105.739H211.478C217.626 105.739 222.609 110.722 222.609 116.87ZM467.201 390.215L288.445 134.925C284.919 129.89 277.979 128.666 272.944 132.192L227.356 164.113C222.321 167.639 221.096 174.579 224.622 179.614L403.378 434.905C406.904 439.94 413.844 441.165 418.88 437.639L464.468 405.718C469.504 402.192 470.727 395.252 467.201 390.215Z" fill="#D66A40"/>
<path d="M222.609 261.565H66.7827V150.261H222.609V261.565ZM222.609 328.348H66.7827V361.739H222.609V328.348Z" fill="#B14724"/>
<path d="M288.445 134.925L467.201 390.216C470.727 395.252 469.503 402.192 464.468 405.718L418.88 437.639C413.844 441.165 406.904 439.94 403.378 434.905L224.622 179.614C221.096 174.579 222.32 167.638 227.356 164.113L272.944 132.192C277.979 128.666 284.919 129.89 288.445 134.925Z" fill="#732D21"/>
<path d="M320.366 180.513L256.543 225.202L237.391 197.849L301.214 153.16L320.366 180.513ZM345.903 216.983L282.08 261.672L365.074 380.2L428.897 335.511L345.903 216.983Z" fill="#C18F2B"/>
<path d="M144.696 38.9565V428.522C144.696 434.669 139.713 439.652 133.565 439.652H77.9131C71.7658 439.652 66.7827 434.669 66.7827 428.522V38.9565C66.7827 32.8092 71.7658 27.8261 77.9131 27.8261H133.565C139.713 27.8261 144.696 32.8092 144.696 38.9565Z" fill="#64757C"/>
<path d="M144.696 328.348H66.7827V161.391H144.696V328.348ZM144.696 105.739H66.7827V128H144.696V105.739ZM144.696 361.739H66.7827V384H144.696V361.739Z" fill="#374145"/>
<path d="M802.667 484H863.778L876 451H790.444L802.667 484ZM436 451H521.556L509.333 484H448.222L436 451Z" fill="#695538"/>
<path d="M420 462.087H932V417.565H457L420 462.087Z" fill="#CBB57A"/>
<path d="M420 473.217H932V450.956H420V473.217Z" fill="#9E8E60"/>
<path d="M709.391 117.043V428.696C709.391 434.843 714.374 439.826 720.522 439.826H776.174C782.321 439.826 787.304 434.843 787.304 428.696C787.304 434.843 792.287 439.826 798.435 439.826H854.087C860.234 439.826 865.217 434.843 865.217 428.696V39.1304C865.217 32.9831 860.234 28 854.087 28H798.435C792.287 28 787.304 32.9831 787.304 39.1304V117.043C787.304 110.896 782.321 105.913 776.174 105.913H720.522C714.374 105.913 709.391 110.896 709.391 117.043ZM464.799 390.389L643.555 135.099C647.081 130.064 654.021 128.84 659.056 132.366L704.644 164.287C709.679 167.813 710.904 174.753 707.378 179.788L528.622 435.079C525.096 440.114 518.156 441.339 513.12 437.813L467.532 405.892C462.496 402.365 461.273 395.426 464.799 390.389Z" fill="#D66A40"/>
<path d="M709.391 261.739H865.217V150.435H709.391V261.739ZM709.391 328.522H865.217V361.913H709.391V328.522Z" fill="#B14724"/>
<path d="M643.555 135.099L464.799 390.39C461.273 395.426 462.497 402.365 467.532 405.892L513.12 437.813C518.156 441.339 525.096 440.114 528.622 435.079L707.378 179.788C710.904 174.753 709.68 167.812 704.644 164.287L659.056 132.366C654.021 128.84 647.081 130.064 643.555 135.099Z" fill="#732D21"/>
<path d="M611.634 180.687L675.457 225.376L694.609 198.023L630.786 153.334L611.634 180.687ZM586.097 217.157L649.92 261.846L566.926 380.374L503.103 335.685L586.097 217.157Z" fill="#C18F2B"/>
<path d="M787.304 39.1304V428.696C787.304 434.843 792.287 439.826 798.435 439.826H854.087C860.234 439.826 865.217 434.843 865.217 428.696V39.1304C865.217 32.9831 860.234 28 854.087 28H798.435C792.287 28 787.304 32.9831 787.304 39.1304Z" fill="#64757C"/>
<path d="M787.304 328.522H865.217V161.565H787.304V328.522ZM787.304 105.913H865.217V128.174H787.304V105.913ZM787.304 361.913H865.217V384.174H787.304V361.913Z" fill="#374145"/>
</svg>
